<svg width="19" height="19" xmlns="http://www.w3.org/2000/svg" xmlns:xlink="http://www.w3.org/1999/xlink" xml:space="preserve" overflow="hidden"><g transform="translate(-76 -214)"><path d="M91.3761 226.497C90.4802 225.316 89.2531 223.698 89.2531 220.763 89.2531 219.386 88.4614 218.101 87.2937 217.572 87.1524 217.503 87.0056 217.447 86.8547 217.403 86.8695 217.322 86.8772 217.241 86.8777 217.159 86.8806 216.398 86.2662 215.779 85.5054 215.776 84.7446 215.773 84.1256 216.388 84.1227 217.148 84.1224 217.232 84.1297 217.315 84.1445 217.397 83.9977 217.441 83.8552 217.497 83.7188 217.566 82.5396 218.101 81.7473 219.386 81.7473 220.763 81.7473 223.699 80.5202 225.316 79.6243 226.497 79.1154 227.168 78.7138 227.697 78.7138 228.256 78.7138 229.803 81.7382 231.134 85.3735 231.215L85.6273 231.215C89.2626 231.134 92.287 229.803 92.287 228.256 92.2866 227.697 91.885 227.168 91.3761 226.497ZM85.5 216.177C86.0419 216.178 86.481 216.617 86.4817 217.159 86.4813 217.208 86.4773 217.256 86.4698 217.305 86.3275 217.275 86.1713 217.247 85.9948 217.225 85.5838 217.176 85.1678 217.185 84.7592 217.251 84.6781 217.265 84.6021 217.28 84.5298 217.296 84.5231 217.25 84.5195 217.204 84.5189 217.158 84.5198 216.617 84.9585 216.178 85.5 216.177ZM79.9385 226.737C80.8161 225.58 82.1423 223.832 82.1423 220.763 82.1291 219.556 82.8113 218.45 83.8953 217.92 84.1891 217.781 84.502 217.688 84.8235 217.643 85.034 217.608 85.247 217.59 85.4604 217.59 85.6237 217.59 85.7867 217.6 85.9489 217.619 86.3534 217.655 86.7489 217.759 87.1188 217.927 88.1961 218.459 88.8724 219.562 88.8579 220.763 88.8579 223.832 90.1839 225.58 91.0617 226.737 91.3224 227.056 91.5542 227.397 91.7544 227.757 91.7571 227.763 91.7558 227.764 91.7514 227.759 90.7078 226.74 88.0333 226.103 85.5 226.103 82.9667 226.103 80.2926 226.74 79.2498 227.759 79.2454 227.764 79.244 227.763 79.2468 227.757 79.4467 227.397 79.6781 227.055 79.9385 226.737ZM86.3041 227.106C86.428 227.552 86.1673 228.013 85.7218 228.137 85.5752 228.178 85.4202 228.178 85.2736 228.137 84.9923 228.06 84.7725 227.841 84.6959 227.559 84.5718 227.114 84.8322 226.652 85.2776 226.528 85.4244 226.487 85.5796 226.487 85.7264 226.528 86.0078 226.605 86.2276 226.825 86.3041 227.106ZM85.5 230.822C82.2146 230.774 79.6862 229.698 79.1967 228.626 79.2957 227.699 81.5102 226.697 84.5749 226.525 84.1272 227.036 84.1784 227.813 84.6893 228.261 85.2002 228.708 85.9773 228.657 86.4251 228.146 86.8317 227.682 86.8317 226.989 86.4251 226.525 89.4898 226.697 91.7033 227.699 91.8033 228.626 91.3138 229.698 88.7854 230.774 85.5 230.822Z" stroke="#262626" stroke-width="0.649573"/></g></svg>